<svg xmlns="http://www.w3.org/2000/svg" version="1.1" xmlns:xlink="http://www.w3.org/1999/xlink" xmlns:svgjs="http://svgjs.dev/svgjs" width="100%" height="100%" viewBox="0 0 1000 600"><rect width="1000" height="600" x="0" y="0" fill="#ffffff"/><g><circle r="166.66666666666666" cx="326.455576578776" cy="348.6777954185087" fill="#3D155" transform="matrix(0.7822821206412944,0,0,0.7822821206412944,0,27.23561358756662)"/><path d="M256.80856068088775 423.0377323459277L231.67279905179618 423.67776331333505L231.67279905179618 418.4411463072744L235.86209265664476 418.00476155676927Q244.0370336494396 416.95743815555716 247.78994250378315 415.29917610363793Q251.57194367482703 413.61182173501834 252.7356363428405 409.01523569636504Q253.87023669415368 404.38955734101137 253.87023669415368 395.1672929470043L253.87023669415368 395.1672929470043L253.87023669415368 302.1882487727256Q253.87023669415368 292.7623381618163 252.7356363428405 288.253029073264Q251.57194367482703 283.7437199847117 247.78994250378315 281.9690886659911Q244.0370336494396 280.1944573472705 235.86209265664476 279.35078016296075L235.86209265664476 279.35078016296075L231.67279905179618 278.91439541245563L231.67279905179618 273.67777840639485L262.68520865435596 274.31780937380233L274.40941228459195 274.31780937380233L326.97922856210187 401.8876181047823L321.10258058863366 401.8876181047823L379.34539862270935 274.31780937380233L391.91327943725514 274.31780937380233L421.2383346711954 273.67777840639485L421.2383346711954 278.91439541245563L417.0490410663467 279.35078016296075Q409.0777462904543 280.1944573472705 405.2084681693094 281.9690886659911Q401.3391900481645 283.7437199847117 400.175497380151 288.253029073264Q399.04089702883783 292.7623381618163 399.04089702883783 302.1882487727256L399.04089702883783 302.1882487727256L399.04089702883783 395.1672929470043Q399.04089702883783 404.5932035579136 400.175497380151 409.2188819132674Q401.3391900481645 413.8154679519207 405.2084681693094 415.5028223205402Q409.0777462904543 417.1610843724595 417.0490410663467 418.00476155676927L417.0490410663467 418.00476155676927L421.2383346711954 418.4411463072744L421.2383346711954 423.67776331333505L390.22592506863555 423.0377323459277L359.0389615658738 423.67776331333505L359.0389615658738 418.4411463072744L363.2282551707224 418.00476155676927Q371.37410384681687 417.1610843724595 375.15610501786074 415.5028223205402Q378.9381061889046 413.8154679519207 380.0727065402178 409.2188819132674Q381.2363992082313 404.5932035579136 381.2363992082313 395.1672929470043L381.2363992082313 395.1672929470043L381.2363992082313 279.75807259676543L384.5820156287701 280.1944573472705L319.24067231981206 423.0377323459277L315.2550249318658 423.0377323459277L257.65223786519755 280.8053959979776L261.20150050263874 280.39810356417286L261.20150050263874 401.04394092047255Q261.20150050263874 407.32788132774544 262.5688393875546 410.67349774828426Q263.93617827247044 414.0191141688231 267.9218256604167 415.5900992706413Q271.87838073166256 417.1610843724595 279.2096445401477 418.00476155676927L279.2096445401477 418.00476155676927L283.39893814499624 418.4411463072744L283.39893814499624 423.67776331333505L256.80856068088775 423.0377323459277Z " fill="#00ff00" transform="matrix(0.7822821206412944,0,0,0.7822821206412944,0,27.23561358756662)"/><path d="M594.1363286920686 380.35579625928585L576.4555672848503 380.80600083215484L576.4555672848503 377.1225088723178L579.40236085272 376.81555120899793Q585.1527010789102 376.07885281703057 587.7925369834602 374.91241369641546Q590.4528367322314 373.7255107315791 591.2713905010842 370.4922233446109Q592.0694804257155 367.2384721134215 592.0694804257155 360.7514334952639L592.0694804257155 360.7514334952639L592.0694804257155 295.3489873639336Q592.0694804257155 288.7187018362267 591.2713905010842 285.54680598192255Q590.4528367322314 282.37491012761836 587.7925369834602 281.12661563011795Q585.1527010789102 279.87832113261766 579.40236085272 279.2848696501994L579.40236085272 279.2848696501994L576.4555672848503 278.9779119868797L576.4555672848503 275.2944200270425L598.2700252247746 275.7446245999115L606.5169544459656 275.7446245999115L643.495120953886 365.47858151038815L639.3614244211799 365.47858151038815L680.3300405522573 275.7446245999115L689.1704212558664 275.7446245999115L709.7979762309543 275.2944200270425L709.7979762309543 278.9779119868797L706.8511826630845 279.2848696501994Q701.2440893464436 279.87832113261766 698.5223980650084 281.12661563011795Q695.8007067835732 282.37491012761836 694.9821530147204 285.54680598192255Q694.1840630900891 288.7187018362267 694.1840630900891 295.3489873639336L694.1840630900891 295.3489873639336L694.1840630900891 360.7514334952639Q694.1840630900891 367.38171902297063 694.9821530147204 370.63547025416017Q695.8007067835732 373.86875764112824 698.5223980650084 375.0556606059647Q701.2440893464436 376.2220997265798 706.8511826630845 376.81555120899793L706.8511826630845 376.81555120899793L709.7979762309543 377.1225088723178L709.7979762309543 380.80600083215484L687.98351829103 380.35579625928585L666.0462772857777 380.80600083215484L666.0462772857777 377.1225088723178L668.9930708536474 376.81555120899793Q674.7229472356163 376.2220997265798 677.3832469843876 375.0556606059647Q680.0435467331588 373.86875764112824 680.8416366577902 370.63547025416017Q681.6601904266429 367.38171902297063 681.6601904266429 360.7514334952639L681.6601904266429 360.7514334952639L681.6601904266429 279.5713634692979L684.0135325120943 279.87832113261766L638.0517383910155 380.35579625928585L635.2481917326951 380.35579625928585L594.7297801744867 280.3080618612653L597.2263691694875 280.0215680421669L597.2263691694875 364.8851300279699Q597.2263691694875 369.30532037977446 598.1881698478894 371.65866246522603Q599.1499705262913 374.0120045506775 601.9535171846118 375.11705213862865Q604.736599998711 376.2220997265798 609.8934887424829 376.81555120899793L609.8934887424829 376.81555120899793L612.8402823103527 377.1225088723178L612.8402823103527 380.80600083215484L594.1363286920686 380.35579625928585ZM721.8716443215314 423.6777544758147L721.8716443215314 423.6777544758147Q717.1649601506285 423.6777544758147 714.2181665827588 421.52905083257644Q711.271373014889 419.4008110335594 711.271373014889 416.00381289282075L711.271373014889 416.00381289282075Q711.271373014889 413.05701932495106 713.4814681907914 411.01063490281933Q715.6915633666937 408.94378663646626 718.9248507536618 408.94378663646626L718.9248507536618 408.94378663646626Q720.3982475375966 408.94378663646626 721.4419035928838 409.3735273651139Q722.4650958039497 409.82373193798287 724.2454502512043 411.01063490281933L724.2454502512043 411.01063490281933Q726.0053408542376 412.3203209329836 727.2536353517379 412.85238088273786Q728.5019298492383 413.3639769882708 729.6888328140748 413.3639769882708L729.6888328140748 413.3639769882708Q733.0858309548133 413.3639769882708 735.8689137689125 410.7855326163848Q738.6724604272331 408.2070882444988 741.189513266455 402.743241837407L741.189513266455 402.743241837407L774.7706816336369 330.40355251505025Q777.2877344728589 325.103416861729 776.0189761311373 322.75007477627753Q774.7706816336369 320.39673269082607 769.1840521612172 319.80328120840784L769.1840521612172 319.80328120840784L766.8102462315444 319.4963235450881L766.8102462315444 316.11978924857067L780.971226432696 316.5495299772183L792.7584007041748 316.11978924857067L792.7584007041748 319.4963235450881L790.5483055282725 319.80328120840784Q786.2713620860172 320.39673269082607 783.6929177141312 322.8114663089415Q781.1144733422452 325.24666377127824 778.1676797743755 331.73370238943585L778.1676797743755 331.73370238943585L744.8730052262922 404.3803493751125Q740.4528148744877 413.957428470689 734.7024746482974 418.8073595511412Q728.9521344221073 423.6777544758147 721.8716443215314 423.6777544758147ZM757.5401247992876 372.70231852051313L751.9330314826467 384.18253512867227L726.4555454271066 328.1934573391479Q724.5319440703028 323.91651389689264 722.6083427134989 322.1566232938593Q720.7052052009163 320.39673269082607 717.7584116330466 319.9465281179571L717.7584116330466 319.9465281179571L714.361413492308 319.4963235450881L714.361413492308 316.11978924857067L729.6888328140748 316.5495299772183L744.5660475629724 316.11978924857067L744.5660475629724 319.4963235450881L742.4991992966194 319.80328120840784Q737.6492682161671 320.39673269082607 736.6874675377652 322.6068278667283Q735.7256668593633 324.8169230426306 737.9357620352656 329.66685412308277L737.9357620352656 329.66685412308277L757.5401247992876 372.70231852051313ZM838.2699902523847 381.97243995276995L838.2699902523847 381.97243995276995Q832.3764031166452 381.97243995276995 827.587863568857 380.06930244018747Q822.7993240210687 378.14570108338364 818.9725851516823 376.2220997265798L818.9725851516823 376.2220997265798Q815.7392977647143 374.4622091235465 813.5905941214759 373.58226382202986Q811.4623543224589 372.70231852051313 809.8457106289748 372.70231852051313L809.8457106289748 372.70231852051313Q807.7788623626217 372.70231852051313 806.960308593769 374.38035374666117Q806.1622186691377 376.07885281703057 805.7120140962687 378.14570108338364L805.7120140962687 378.14570108338364L805.2822733676211 380.35579625928585L801.5987814077839 380.35579625928585L802.3354797997514 362.9615286711661L801.8852752268824 343.9710812337836L805.5687671867195 343.9710812337836L807.1854108802036 350.88786058058884Q808.8020545736877 357.37489919874645 813.017606483279 363.5549801535843Q817.2126945486491 369.75552495264344 823.6178777899214 373.7255107315791Q830.0230610311937 377.69549651051466 838.2699902523847 377.69549651051466L838.2699902523847 377.69549651051466Q842.8538913579597 377.69549651051466 847.0489794233298 375.71050362104677Q851.2440674886999 373.7255107315791 853.965758770135 369.59181419887295Q856.6874500515702 365.47858151038815 856.6874500515702 358.8482959826813L856.6874500515702 358.8482959826813Q856.6874500515702 352.21801045497455 853.8225118605858 347.4294709071862Q850.9575736696014 342.640931359398 845.5755826393948 338.8141924900117Q840.1935916091885 334.9669897764039 832.5401138704158 331.44720857033735L832.5401138704158 331.44720857033735L826.3395690713566 328.50041500246766Q815.2890931918452 323.17981550492516 809.9071021616387 316.77463226365285Q804.5455749756536 310.36944902238054 804.5455749756536 300.342165353935L804.5455749756536 300.342165353935Q804.5455749756536 292.5454407056131 808.3723138450399 286.50860666032446Q812.1990527144263 280.45130877081453 818.9111936190184 277.07477447429716Q825.6028706793892 273.6777763335585 834.3000044734491 273.6777763335585L834.3000044734491 273.6777763335585Q840.3368385187376 273.6777763335585 844.4705350514438 275.2944200270425Q848.5837677399285 276.93152756474797 850.9575736696014 278.0979666853631L850.9575736696014 278.0979666853631Q854.7843125389877 280.0215680421669 856.99440771489 280.0215680421669L856.99440771489 280.0215680421669Q859.3477498003414 280.0215680421669 859.7979543732105 275.4581307808131L859.7979543732105 275.4581307808131L863.4814463330475 275.4581307808131L863.0312417601787 289.59864713774334L863.317735579277 303.8824104042229L859.6342436194399 303.8824104042229Q858.7542983179234 295.63548118303197 855.0708063580861 289.8237494241779Q851.387314398249 283.99155382110246 846.1690341218131 280.9015133436835Q840.9302900011559 277.8114728662646 835.0367028654165 277.8114728662646L835.0367028654165 277.8114728662646Q826.3395690713566 277.8114728662646 820.9575780411501 282.82511470048735Q815.596050855165 287.81829269048876 815.596050855165 295.63548118303197L815.596050855165 295.63548118303197Q815.596050855165 304.0256573137722 821.0394334180354 308.8141968615604Q826.4828159809058 313.6027364093486 835.1799497749656 317.879679851604L835.1799497749656 317.879679851604L841.2167838202544 320.8264734194737Q849.3204661318961 324.8169230426306 855.1526617349715 329.0120111080006Q860.9643934938256 333.2070991733707 864.1362893481297 338.8141924900117Q867.308185202434 344.4008219624312 867.308185202434 352.81146193739266L867.308185202434 352.81146193739266Q867.308185202434 361.48813188723125 863.3995909561623 368.1184174149381Q859.4909967098907 374.74870294264497 852.9425665590692 378.3708033698181Q846.3736725640263 381.97243995276995 838.2699902523847 381.97243995276995ZM895.7324648258437 380.35579625928585L877.621962689978 380.80600083215484L877.621962689978 377.40900269141616L879.9753047754294 377.1225088723178Q884.845699700103 376.52905738989955 887.0557948760052 375.4240098019484Q889.2658900519075 374.3189622139972 889.9207330669896 371.37216864612753Q890.5755760820717 368.42537507825784 890.5755760820717 362.53178794251846L890.5755760820717 362.53178794251846L890.5755760820717 291.0720439216782Q890.5755760820717 284.44175839397144 887.9357401775218 281.78145864520013Q885.2754404287506 279.1416227406502 878.6451549010438 279.1416227406502L878.6451549010438 279.1416227406502L877.621962689978 279.1416227406502L877.621962689978 275.7446245999115Q885.2754404287506 275.7446245999115 890.5755760820717 275.3762754039278Q895.8961755796144 275.00792620794414 900.8893535696158 273.9847339968783L900.8893535696158 273.9847339968783L900.8893535696158 362.53178794251846Q900.8893535696158 368.42537507825784 901.5646604289192 371.37216864612753Q902.2195034440014 374.3189622139972 904.5114539967889 375.4240098019484Q906.7829407053551 376.52905738989955 911.5100887204794 377.1225088723178L911.5100887204794 377.1225088723178L913.863430805931 377.40900269141616L913.863430805931 380.80600083215484L895.7324648258437 380.35579625928585ZM941.4077651278241 380.35579625928585L923.2972629919583 380.80600083215484L923.2972629919583 377.40900269141616L925.6506050774098 377.1225088723178Q930.5210000020833 376.52905738989955 932.7310951779856 375.4240098019484Q934.9411903538878 374.3189622139972 935.59603336897 371.37216864612753Q936.250876384052 368.42537507825784 936.250876384052 362.53178794251846L936.250876384052 362.53178794251846L936.250876384052 333.06385226382145Q936.250876384052 325.9833621632456 932.505992891551 321.93152100742486Q928.7406455548286 317.879679851604 922.253606936671 317.879679851604L922.253606936671 317.879679851604Q915.0503337707673 317.879679851604 908.8497889717081 322.524972489843Q902.6697080168703 327.17026512808206 900.1526551776483 334.5372490477563L900.1526551776483 334.5372490477563L900.1526551776483 327.45675894718045Q904.4295986199037 320.8264734194737 910.9984926149465 317.14298145963653Q917.546922765768 313.4594894997995 925.5073581678605 313.4594894997995L925.5073581678605 313.4594894997995Q935.2276841729862 313.4594894997995 940.8961690222912 318.6982336204567Q946.5646538715961 323.91651389689264 946.5646538715961 333.06385226382145L946.5646538715961 333.06385226382145L946.5646538715961 362.53178794251846Q946.5646538715961 368.42537507825784 947.2399607308995 371.37216864612753Q947.8948037459817 374.3189622139972 950.1867542987692 375.4240098019484Q952.4582410073355 376.52905738989955 957.1853890224598 377.1225088723178L957.1853890224598 377.1225088723178L959.5387311079113 377.40900269141616L959.5387311079113 380.80600083215484L941.4077651278241 380.35579625928585ZM1001.6737863596037 381.97243995276995L1001.6737863596037 381.97243995276995Q992.2399541735764 381.97243995276995 984.5864764348038 377.40900269141616Q976.9329986960311 372.8455654300624 972.3490975904559 365.11023231440447Q967.7856603291021 357.37489919874645 967.7856603291021 347.94106701271915L967.7856603291021 347.94106701271915Q967.7856603291021 338.22074100759346 972.287706057792 330.40355251505025Q976.7692879422605 322.6068278667283 984.5046210579184 318.02292676115326Q992.2399541735764 313.4594894997995 1001.6737863596037 313.4594894997995L1001.6737863596037 313.4594894997995Q1011.2508654551804 313.4594894997995 1018.9248070381742 318.02292676115326Q1026.578284776947 322.6068278667283 1031.0803305056368 330.40355251505025Q1035.5619123901051 338.22074100759346 1035.5619123901051 347.94106701271915L1035.5619123901051 347.94106701271915Q1035.5619123901051 357.37489919874645 1030.9984751287516 365.11023231440447Q1026.4350378673976 372.8455654300624 1018.7610962844037 377.40900269141616Q1011.107618545631 381.97243995276995 1001.6737863596037 381.97243995276995ZM1001.6737863596037 378.2889479929328L1001.6737863596037 378.2889479929328Q1012.2945215104675 378.2889479929328 1018.0243978924362 370.4103679677256Q1023.7747381186265 362.53178794251846 1023.7747381186265 347.94106701271915L1023.7747381186265 347.94106701271915Q1023.7747381186265 333.06385226382145 1018.1062532693215 325.103416861729Q1012.4377684200166 317.14298145963653 1001.6737863596037 317.14298145963653L1001.6737863596037 317.14298145963653Q990.9302681434121 317.14298145963653 985.241319449886 325.103416861729Q979.5728346005809 333.06385226382145 979.5728346005809 347.94106701271915L979.5728346005809 347.94106701271915Q979.5728346005809 362.53178794251846 985.3231748267712 370.4103679677256Q991.0735150529614 378.2889479929328 1001.6737863596037 378.2889479929328ZM1062.9629998024493 421.61090620946163L1044.8524976665835 422.0611107823306L1044.8524976665835 418.66411264159194L1047.205839752035 418.37761882249356Q1052.0762346767083 417.7841673400753 1054.2863298526108 416.67911975212417Q1056.496425028513 415.5740721641731 1057.1512680435949 412.6272785963033Q1057.8061110586773 409.6804850284336 1057.8061110586773 403.78689789269424L1057.8061110586773 403.78689789269424L1057.8061110586773 330.99700399746837Q1057.8061110586773 324.3667184697616 1055.0844197772421 321.93152100742486Q1052.362728495807 319.4963235450881 1044.8524976665835 319.4963235450881L1044.8524976665835 319.4963235450881L1044.8524976665835 316.11978924857067Q1050.439127139003 316.11978924857067 1055.902973546095 315.60819314303774Q1061.3463561089652 315.07613319328345 1068.1198885462213 313.90969407266846L1068.1198885462213 313.90969407266846L1067.0966963351552 324.0802246506631L1068.1198885462213 326.29031982656545L1068.1198885462213 403.78689789269424Q1068.1198885462213 409.6804850284336 1068.7951954055247 412.6272785963033Q1069.4500384206067 415.5740721641731 1071.7419889733942 416.67911975212417Q1074.0134756819607 417.7841673400753 1078.7406236970849 418.37761882249356L1078.7406236970849 418.37761882249356L1081.0939657825365 418.66411264159194L1081.0939657825365 422.0611107823306L1062.9629998024493 421.61090620946163ZM1088.60419661176 381.97243995276995L1088.60419661176 381.97243995276995Q1081.830664174504 381.97243995276995 1075.7119747523298 378.9642548522363Q1069.593285330156 375.9356059074813 1065.7665464607696 370.7787171637093L1065.7665464607696 370.7787171637093L1067.0966963351552 365.76507532948665Q1069.593285330156 370.7787171637093 1075.2822340236821 374.175715304448Q1080.9507188729872 377.5522496009654 1086.987552918276 377.5522496009654L1086.987552918276 377.5522496009654Q1096.1144274409833 377.5522496009654 1101.4350269385259 369.59181419887295Q1106.7351625918468 361.65184264100185 1106.7351625918468 347.79782010317L1106.7351625918468 347.79782010317Q1106.7351625918468 333.8005506557889 1101.4350269385259 325.84011525369647Q1096.1144274409833 317.879679851604 1086.7010590991774 317.879679851604L1086.7010590991774 317.879679851604Q1081.2372126920854 317.879679851604 1076.3872816116332 320.60137113303915Q1071.5168866869599 323.34352625869576 1067.2399432447046 328.78690882156616L1067.2399432447046 328.78690882156616L1065.1730949783514 326.29031982656545Q1070.0434899030251 319.9465281179571 1075.9370770387645 316.7132407309889Q1081.830664174504 313.4594894997995 1088.60419661176 313.4594894997995L1088.60419661176 313.4594894997995Q1097.0148365867212 313.4594894997995 1103.7883690239773 318.02292676115326Q1110.5619014612334 322.6068278667283 1114.531887240169 330.3421609823863Q1118.522336863326 338.0774940980442 1118.522336863326 347.79782010317L1118.522336863326 347.79782010317Q1118.522336863326 357.37489919874645 1114.531887240169 365.11023231440447Q1110.5619014612334 372.8455654300624 1103.7883690239773 377.40900269141616Q1097.0148365867212 381.97243995276995 1088.60419661176 381.97243995276995Z " fill="#000000" transform="matrix(0.7822821206412944,0,0,0.7822821206412944,0,27.23561358756662)"/></g></svg>